# xmcd
#
# Track frame offsets:
#	150
#	28988
#	43419
#	61559
#	95341
#	124691
#	132966
#	154602
#	169473
#	201227
#	211689
#	231913
#	250847
#	270828
#
# Disc length: 3801 seconds
#
# Revision: 0
# Processed by: cddbd v1.5.1PL2 Copyright (c) Steve Scherf et al.
# Submitted via: dBpowerAMP V4.0
#
DISCID=bf0ed70e
DTITLE=Sabýr Rýzayev - Azerbaijan
DYEAR=1900
DGENRE=Country
TTITLE0=Süita
TTITLE1=Yasha Azerbaycan
TTITLE2=Mansuriyya
TTITLE3=Orta Mahur
TTITLE4=Shur Tasnifi
TTITLE5=Sahampan Ragsi
TTITLE6=Gatar
TTITLE7=Azerbaycan Ritmlari
TTITLE8=Dilkash
TTITLE9=Daðlar Gözali
TTITLE10=Sarý Galin
TTITLE11=Maným Azizlarim
TTITLE12=Bayram Regsi
TTITLE13=Qals Ayaða Azerbaycan
EXTD=azerbaycan - azerbaijan
EXTT0=
EXTT1=
EXTT2=
EXTT3=
EXTT4=
EXTT5=
EXTT6=
EXTT7=
EXTT8=
EXTT9=
EXTT10=
EXTT11=
EXTT12=
EXTT13=
PLAYORDER=
